<svg xmlns="http://www.w3.org/2000/svg" viewBox="0 0 18 18">
  <rect width="18" height="18" rx="4" fill="#0891b2" /><rect
    x="3.3"
    y="3.6"
    width="11.4"
    height="10.8"
    rx="1.4"
    fill="none"
    stroke="#fff"
    stroke-width="1.2"
  /><path d="M3.6 6.6h10.8" stroke="#fff" stroke-width="1.1" /><circle
    cx="5.2"
    cy="5.1"
    r=".55"
    fill="#fff"
  /><path
    d="M6 8h2V7a1 1 0 1 1 2 0v1h2v1.6h.9a1.1 1.1 0 1 1 0 2.2H12v1.4h-1.7v-.8a1.1 1.1 0 1 0-2.2 0v.8H6v-1.7h.8a1 1 0 1 0 0-2H6V8Z"
    fill="#fff"
  />
</svg>
